<?xml version="1.0" encoding="UTF-8" standalone="no"?>
<svg width="268px" height="268px" viewBox="0 0 268 268" version="1.1" xmlns="http://www.w3.org/2000/svg" xmlns:xlink="http://www.w3.org/1999/xlink" xmlns:sketch="http://www.bohemiancoding.com/sketch/ns">
    <!-- Generator: Sketch 3.2.2 (9983) - http://www.bohemiancoding.com/sketch -->
    <title>Fill 15</title>
    <desc>Created with Sketch.</desc>
    <defs></defs>
    <g id="Page-1" stroke="none" stroke-width="1" fill="none" fill-rule="evenodd" sketch:type="MSPage">
        <g id="FB-fLogo-online-broadcast" sketch:type="MSLayerGroup" transform="translate(-610.000000, 0.000000)" fill="#000000">
            <path d="M862.716,0.553 L625.284,0.553 C617.146,0.553 610.553,7.146 610.553,15.283 L610.553,252.717 C610.553,260.852 617.146,267.447 625.284,267.447 L753.109,267.447 L753.109,164.092 L718.328,164.092 L718.328,123.812 L753.109,123.812 L753.109,94.107 C753.109,59.634 774.163,40.863 804.916,40.863 C819.646,40.863 832.306,41.96 835.997,42.45 L835.997,78.476 L814.667,78.486 C797.943,78.486 794.705,86.433 794.705,98.095 L794.705,123.812 L834.591,123.812 L829.397,164.092 L794.705,164.092 L794.705,267.447 L862.716,267.447 C870.851,267.447 877.446,260.852 877.446,252.717 L877.446,15.283 C877.446,7.146 870.851,0.553 862.716,0.553" id="Fill-15" sketch:type="MSShapeGroup"></path>
        </g>
    </g>
</svg>
